<svg width="16" height="16" fill="#E14A4A" xmlns="http://www.w3.org/2000/svg"><path fill-rule="evenodd" clip-rule="evenodd" d="M8 0C5.829 0 5.556.01 4.703.048 3.85.088 3.269.222 2.76.42a3.917 3.917 0 00-1.417.923A3.927 3.927 0 00.42 2.76C.222 3.268.087 3.85.048 4.7.01 5.555 0 5.827 0 8s.01 2.444.048 3.298c.04.851.174 1.433.372 1.941.205.527.478.973.923 1.418.444.445.89.719 1.416.923.51.198 1.09.333 1.942.372C5.555 15.99 5.827 16 8 16s2.444-.01 3.298-.048c.851-.04 1.434-.174 1.943-.372a3.915 3.915 0 001.416-.923c.445-.445.718-.891.923-1.417.197-.51.332-1.09.372-1.942C15.99 10.445 16 10.173 16 8s-.01-2.445-.048-3.299c-.04-.851-.175-1.433-.372-1.941a3.926 3.926 0 00-.923-1.417A3.911 3.911 0 0013.24.42c-.51-.198-1.092-.333-1.943-.372C10.443.01 10.172 0 7.998 0h.003zm0 1.442h-.717V1.44c-1.49.001-1.777.011-2.515.045-.78.035-1.203.165-1.485.275-.374.146-.64.32-.92.6-.28.28-.454.546-.6.92-.109.281-.239.705-.275 1.485-.038.843-.046 1.095-.046 3.231s.008 2.39.046 3.233c.036.78.166 1.204.276 1.485.145.374.319.64.599.92.28.28.546.453.92.598.282.11.705.24 1.485.276.843.038 1.097.047 3.233.047s2.39-.009 3.232-.047c.78-.036 1.204-.166 1.486-.276a2.48 2.48 0 00.92-.598c.28-.28.453-.546.598-.92.11-.28.24-.704.275-1.484.039-.844.047-1.097.047-3.232 0-2.135-.008-2.388-.047-3.232-.035-.78-.166-1.203-.275-1.485a2.482 2.482 0 00-.599-.92 2.474 2.474 0 00-.92-.598c-.281-.11-.704-.24-1.485-.275-.843-.039-1.096-.046-3.232-.046z"/><path fill-rule="evenodd" clip-rule="evenodd" d="M8 3.892a4.109 4.109 0 10.001 8.217 4.109 4.109 0 000-8.217zM10.668 8a2.667 2.667 0 10-5.333 0 2.667 2.667 0 005.333 0z"/><path d="M12.271 2.77a.96.96 0 100 1.92.96.96 0 000-1.92z"/></svg>